PathFileType	4	(X/Y/Z)	OpenSim_Sub11_CSPreOp_Gyro.trc
DataRate	CameraRate	NumFrames	NumMarkers	Units	OrigDataRate	OrigDataStartFrame	OrigNumFrames
100	100	27	8	m	100	2314	3701
Frame#	Time	torso_imu_offset_imu	pelvis_imu_offset_imu	tibia_r_imu_offset_imu	femur_r_imu_offset_imu	tibia_l_imu_offset_imu	femur_l_imu_offset_imu	toes_r_imu_offset_imu	toes_l_imu_offset_imu
				X1	Y1	Z1	X2	Y2	Z2	X3	Y3	Z3	X4	Y4	Z4	X5	Y5	Z5	X6	Y6	Z6	X7	Y7	Z7	X8		Y8	Z8	

2314	23.13000000	-0.10532300	-0.01467900	0.07461300	-0.50025400	0.07746200	-0.00353300	-0.54209900	0.14721700	-1.20699900	-0.27006600	0.22177500	1.03862700	-0.04938500	-0.20368700	0.11984000	-0.51797200	-0.40432300	0.46514000	-0.33086800	-1.10978200	-0.46037300	0.05076600	-0.01900800	-0.08070000
2315	23.14000000	-0.10758800	-0.06078200	0.05167200	-0.50538700	0.09342300	0.03720900	-0.55966200	0.15296800	-1.26606600	-0.19467000	0.25947800	1.14329700	0.07620300	-0.19646700	0.05961200	-0.45415900	-0.41563800	0.54306800	0.12146900	-1.21563800	-0.46341600	-0.00205500	-0.01777200	-0.07920700
2316	23.15000000	-0.08874600	-0.10815400	0.02185600	-0.50962800	0.10218200	0.06849400	-0.47067700	0.22392300	-1.36229500	-0.12040400	0.27756300	1.24523300	0.18100300	-0.18603000	0.00710000	-0.29882500	-0.43232000	0.59306600	-0.02922600	-1.38264100	-0.39543700	0.05320900	-0.03727100	-0.08050900
2317	23.16000000	-0.08517500	-0.14230800	-0.01108900	-0.50907500	0.11427300	0.09308600	-0.34534400	0.28258800	-1.46218100	-0.04785300	0.29490600	1.35335500	0.21226100	-0.18115900	-0.03540000	-0.14841100	-0.46494700	0.59211200	-0.05505900	-1.57516800	-0.33866700	0.05420800	0.00530500	-0.08105400
2318	23.17000000	-0.10713200	-0.16684600	-0.04422000	-0.50845200	0.12441000	0.11076100	-0.22840200	0.29752300	-1.53021100	0.08347200	0.32176100	1.45651100	0.14262000	-0.17564200	-0.06448300	0.01326600	-0.47320200	0.55035000	0.06748500	-1.74094500	-0.30827100	0.05313800	-0.00615400	-0.08623900
2319	23.18000000	-0.13224300	-0.19278100	-0.06439300	-0.51494900	0.12941500	0.12001200	-0.09171900	0.25673300	-1.55565200	0.20537700	0.37095400	1.55423100	0.04029800	-0.17311300	-0.09373000	0.15451400	-0.42824600	0.51952800	-0.08750400	-1.91007800	-0.30716500	0.09257800	0.03284600	-0.08938500
2320	23.19000000	-0.19942100	-0.20363400	-0.09596300	-0.50582000	0.12589300	0.12617800	0.01929500	0.08693500	-1.61520500	0.37873800	0.42121400	1.66037100	-0.07737000	-0.15522600	-0.12332300	0.23482400	-0.36643900	0.50711500	-0.11723500	-1.97241300	-0.44091900	0.00699500	-0.01519500	-0.08251500
2321	23.20000000	-0.24921800	-0.21176900	-0.11490300	-0.50180000	0.14092900	0.11631700	0.04219600	0.02947500	-1.73738900	0.55466900	0.47245100	1.78708300	-0.18445000	-0.16616700	-0.13891200	0.29264700	-0.31265100	0.47127100	0.32730100	-2.01157800	-0.54308500	0.08640600	0.04773000	-0.07737400
2322	23.21000000	-0.29191400	-0.21052500	-0.12688300	-0.50066300	0.14546700	0.11046000	0.24832100	0.09926400	-1.88653300	0.69382800	0.55717800	1.87366000	-0.24598800	-0.16706700	-0.11928300	0.31791700	-0.27949000	0.41765700	-0.20675300	-2.21464500	-0.59407400	0.01573400	0.02271300	-0.07315900
2323	23.22000000	-0.32941700	-0.21213900	-0.13208200	-0.49453100	0.15366500	0.09808100	0.41559400	0.04315000	-1.96920200	0.77240800	0.65130700	1.87293100	-0.19682200	-0.17463100	-0.11132300	0.30499600	-0.26385500	0.35949100	-0.18380600	-2.34499100	-0.67348400	0.08104700	0.03541200	-0.08018700
2324	23.23000000	-0.34409800	-0.20233400	-0.12581600	-0.48266600	0.17024000	0.07743500	0.40530500	-0.15054200	-1.93770200	0.85154100	0.71694200	1.83577900	-0.10782900	-0.17082900	-0.12206500	0.24587300	-0.25398300	0.34998300	-0.45781800	-2.44554000	-0.76360000	-0.01126900	0.01812400	-0.07158000
2325	23.24000000	-0.35666700	-0.20525100	-0.11373500	-0.45752700	0.19047900	0.05352900	0.33608300	-0.31378500	-1.82365000	1.00241400	0.76344300	1.77133400	-0.06552100	-0.16779000	-0.10543300	0.18042000	-0.25608900	0.35433100	-0.08652200	-2.42440500	-0.93358200	0.04876000	0.02890900	-0.06763500
2326	23.25000000	-0.37420200	-0.21761500	-0.10269300	-0.43185500	0.20753800	0.01592800	0.27479400	-0.38676300	-1.70883600	1.17358000	0.79083100	1.69242300	-0.03542300	-0.16031100	-0.06675300	0.08496700	-0.25031300	0.39190000	-0.33469400	-2.44978100	-1.07384700	0.00233300	0.02768300	-0.05620000
2327	23.26000000	-0.37236000	-0.23783100	-0.08673200	-0.38769200	0.22418300	-0.00137000	0.18189200	-0.38602900	-1.67724600	1.36571500	0.84159000	1.55436700	0.00701400	-0.15505800	-0.00947400	0.00701200	-0.25340500	0.40567600	-0.65943100	-2.35538400	-1.13793000	0.00910200	-0.00033200	-0.04634400
2328	23.27000000	-0.36786100	-0.26167800	-0.07779300	-0.35217500	0.23489100	-0.02400100	0.08310400	-0.44201700	-1.72108700	1.54365000	0.89372800	1.45907500	-0.02599500	-0.14891600	0.04083800	-0.08022300	-0.25569500	0.39949900	-0.11192900	-2.14213400	-1.23673500	0.00757400	0.03424000	-0.01944200
2329	23.28000000	-0.35019900	-0.28731000	-0.07268500	-0.31683900	0.23943600	-0.03065000	0.07245200	-0.51296000	-1.72420800	1.67320400	0.92237200	1.38480100	-0.10579400	-0.13821700	0.08188200	-0.21531500	-0.28139300	0.35952800	-0.22120000	-1.72765000	-1.22144400	-0.02829700	0.00309900	-0.00436500
2330	23.29000000	-0.30953300	-0.30730300	-0.08689200	-0.29126600	0.22382700	-0.03057600	0.08405500	-0.54186100	-1.61546500	1.71883000	0.92538000	1.25454300	-0.17101500	-0.13436300	0.09623900	-0.35810100	-0.31656700	0.30953300	-0.65910300	-1.07466900	-1.15065900	-0.01033600	0.02174900	0.01431500
2331	23.30000000	-0.29698700	-0.28863500	-0.10952700	-0.27430400	0.20210700	-0.01500500	-0.09783500	-0.58475700	-1.33695000	1.71289800	0.94900900	1.11577800	-0.21316900	-0.13313300	0.10521100	-0.48494500	-0.35163000	0.27234100	-0.47634300	-0.47700500	-1.12151500	-0.11432500	-0.03116600	0.03901200
2332	23.31000000	-0.33143700	-0.25937900	-0.12436900	-0.27456400	0.18387500	0.01361200	-0.58127100	-0.65910700	-0.79378500	1.59123100	0.99192800	0.98603900	-0.23473000	-0.13205200	0.12288200	-0.57054900	-0.36733900	0.24012800	-0.84804900	0.08232100	-0.98820800	-0.04571200	-0.00003300	0.03416400
2333	23.32000000	-0.33920400	-0.22689200	-0.13376000	-0.27102600	0.16328100	0.04474600	-1.11070100	-0.62839600	-0.15633300	1.36332800	0.99808000	0.86707600	-0.20777600	-0.12131700	0.16378200	-0.61225200	-0.36449700	0.21739300	-0.90667200	0.49210400	-0.80911000	-0.06115400	-0.02630300	0.00372100
2334	23.33000000	-0.34386100	-0.21030800	-0.13557100	-0.28499600	0.14464500	0.06649600	-1.39980100	-0.52523000	0.37070000	1.06618000	0.91347800	0.74173900	-0.09663500	-0.11963100	0.18448100	-0.62185500	-0.36858300	0.19695600	-0.68733900	0.81495700	-0.62540500	0.00817400	-0.02989500	-0.01817800
2335	23.34000000	-0.34975300	-0.22155100	-0.11778900	-0.29062300	0.13699100	0.08806300	-1.48006300	-0.46626800	0.77445000	0.76479400	0.78819800	0.67572200	-0.01902700	-0.10176900	0.17994900	-0.59566900	-0.34350900	0.20166900	-0.67394400	1.13970900	-0.38348600	-0.05037200	-0.05917100	-0.03561500
2336	23.35000000	-0.30612100	-0.25207000	-0.10931500	-0.28909700	0.13595500	0.09868600	-1.48674000	-0.43366100	1.06519700	0.26890200	0.62009300	0.62165000	0.00625100	-0.10684300	0.17924100	-0.61865000	-0.29893000	0.23830400	-0.63829200	1.47346500	-0.16045000	0.02109600	-0.05705100	-0.03612000
2337	23.36000000	-0.25690500	-0.26660600	-0.08668400	-0.30042700	0.12805500	0.09843100	-1.38140800	-0.37529700	1.30245900	-0.27542000	0.42430800	0.54740600	0.01617900	-0.09347100	0.19518100	-0.57332300	-0.26348700	0.23638500	-0.65774800	1.75652500	0.03098600	-0.02149300	-0.06303200	-0.04245100
2338	23.37000000	-0.26616000	-0.25687600	-0.06969800	-0.30355800	0.13116200	0.10090400	-1.16545500	-0.31588100	1.53732200	-0.71548200	0.23448700	0.47275400	0.05810600	-0.08464600	0.20958000	-0.43139400	-0.27172700	0.19550200	-0.59953900	2.01599600	0.16699700	-0.00321900	-0.07369000	-0.03902600
2339	23.38000000	-0.27006900	-0.24107000	-0.04619500	-0.31221800	0.13684200	0.10517200	-0.91037000	-0.27912500	1.78191100	-1.07037000	0.07686900	0.46442500	0.07231400	-0.07014200	0.22389500	-0.29761900	-0.25910600	0.18505500	-0.62336600	2.22748800	0.25123100	-0.00329400	-0.05826600	-0.02902900
2340	23.39000000	-0.26326300	-0.22533000	-0.04078500	-0.32631300	0.14050400	0.10166300	-0.70629300	-0.25908300	2.04512000	-1.38551500	-0.07000100	0.46086500	0.06872800	-0.05929300	0.24245200	-0.22749100	-0.25981200	0.17544300	-0.55205700	2.43347400	0.30826700	0.01463400	-0.06543200	-0.03416700
